<svg xmlns="http://www.w3.org/2000/svg" width="400" height="400" viewBox="0 0 400 400">
  <defs>
    <filter id="noise" x="0" y="0" width="100%" height="100%">
      <feTurbulence type="fractalNoise" baseFrequency="0.9" numOctaves="4" stitchTiles="stitch"/>
      <feColorMatrix values="0 0 0 0 0.62 0 0 0 0 0.62 0 0 0 0 0.62 0 0 0 0.18 0"/>
    </filter>
  </defs>
  <rect width="100%" height="100%" filter="url(#noise)" opacity="0.6"/>
  <g stroke="rgba(255,255,255,0.16)" stroke-width="0.5" fill="none" stroke-linecap="round">
    <path d="M15,25 l70,-3 M130,170 l85,4 M280,35 l95,-2 M25,340 l75,-6 M210,310 l110,5 M150,75 l3,65 M320,140 l2,75 M10,240 l4,55"/>
    <path d="M340,120 l-60,1 M370,300 l-70,-3 M120,420 l85,5 M5,450 l45,-3"/>
    <path d="M60,60 l20,8 M260,240 l-15,10 M180,360 l25,-5 M380,80 l-10,12"/>
  </g>
  <g fill="rgba(255,255,255,0.14)">
    <circle cx="65" cy="65" r="0.9"/>
    <circle cx="180" cy="110" r="0.7"/>
    <circle cx="300" cy="280" r="1.1"/>
    <circle cx="370" cy="160" r="0.8"/>
    <circle cx="110" cy="330" r="1"/>
    <circle cx="230" cy="40" r="0.6"/>
    <circle cx="40" cy="190" r="0.8"/>
  </g>
</svg>